<svg width="150" height="150" viewBox="0 0 150 150" fill="none" xmlns="http://www.w3.org/2000/svg">
<circle cx="75" cy="75" r="75" fill="black"/>
<path d="M32 32H62.4478V33.7315H53.4826V85.3611H56.5274C61.3201 85.3611 65.126 83.9969 67.9453 81.2685C70.8209 78.5401 73.7247 74.3426 76.6567 68.6759H78.4328L76.8259 87.0926H32V85.3611H36.9901V33.7315H32V32Z" fill="white"/>
<path d="M116.154 61.9074L117 81.662H115.393C112.912 74.6836 110.713 69.9352 108.796 67.4167C106.879 64.8457 104.116 63.5602 100.507 63.5602H99.4925V115.347H106.682V117H75.8109V115.347H83V63.5602H81.9005C78.2919 63.5602 75.5008 64.8981 73.5274 67.5741C71.5539 70.1975 69.3831 74.8935 67.0149 81.662H65.408L66.2537 61.9074H116.154Z" fill="white"/>
</svg>
