<svg width="100" height="100" viewBox="0 0 100 100" fill="none" xmlns="http://www.w3.org/2000/svg">
<path d="M0 0H35.8209V2.03704H25.2736V62.7778H28.8557C34.4942 62.7778 38.9718 61.1728 42.2886 57.963C45.6716 54.7531 49.0879 49.8148 52.5373 43.1481H54.6269L52.7363 64.8148H0V62.7778H5.87065V2.03704H0V0Z" fill="white"/>
<path d="M99.005 35.1852L100 58.4259H98.1095C95.1907 50.216 92.6036 44.6296 90.3483 41.6667C88.0929 38.642 84.8425 37.1296 80.597 37.1296H79.403V98.0555H87.8607V100H51.5423V98.0555H60V37.1296H58.7065C54.461 37.1296 51.1774 38.7037 48.8557 41.8519C46.534 44.9383 43.9801 50.463 41.194 58.4259H39.3035L40.2985 35.1852H99.005Z" fill="white"/>
</svg>
