<svg width="40" height="40" viewBox="0 0 40 40" fill="none" xmlns="http://www.w3.org/2000/svg">
<g clip-path="url(#clip0_23_85)">
<path d="M39.5113 37.1562L29.563 27.2079C32.274 23.8922 33.6069 19.6614 33.286 15.3905C32.9652 11.1196 31.015 7.13544 27.8389 4.26209C24.6629 1.38874 20.504 -0.153956 16.2224 -0.046903C11.9408 0.06015 7.86414 1.80876 4.83566 4.83725C1.80718 7.86573 0.0585631 11.9424 -0.0484899 16.224C-0.155543 20.5055 1.38715 24.6645 4.2605 27.8405C7.13386 31.0166 11.118 32.9667 15.3889 33.2876C19.6598 33.6085 23.8906 32.2756 27.2063 29.5646L37.1546 39.5129C37.469 39.8165 37.89 39.9845 38.327 39.9807C38.764 39.9769 39.182 39.8016 39.491 39.4926C39.8 39.1836 39.9753 38.7656 39.9791 38.3286C39.9829 37.8916 39.8149 37.4706 39.5113 37.1562ZM16.6663 30.0012C14.0292 30.0012 11.4514 29.2192 9.2587 27.7542C7.06604 26.2891 5.35708 24.2067 4.34791 21.7703C3.33874 19.334 3.0747 16.6531 3.58917 14.0667C4.10364 11.4803 5.37351 9.1045 7.23821 7.2398C9.10291 5.3751 11.4787 4.10522 14.0651 3.59075C16.6515 3.07628 19.3324 3.34033 21.7688 4.3495C24.2051 5.35866 26.2875 7.06763 27.7526 9.26029C29.2177 11.4529 29.9996 14.0308 29.9996 16.6679C29.9957 20.2029 28.5896 23.592 26.09 26.0916C23.5904 28.5912 20.2013 29.9973 16.6663 30.0012Z" fill="white"/>
</g>
<defs>
<clipPath id="clip0_23_85">
<rect width="40" height="40" fill="white"/>
</clipPath>
</defs>
</svg>
